<svg id="Capa_1" enable-background="new 0 0 512 512" height="512" viewBox="0 0 512 512" width="512" xmlns="http://www.w3.org/2000/svg"><g><path d="m477.29 331-35.528-30h-65.762-65.684l-35.607 30c-2.186 8.978-3.71 18.116-3.71 27.422v93.578l41.448 30h63.553 58.658l46.342-30v-93.578c0-9.306-1.523-18.444-3.71-27.422z" fill="#8ae6b8"/><path d="m481 452v-93.578c0-9.305-1.523-18.444-3.71-27.422l-35.528-30h-65.762v181h58.658z" fill="#5ccca7"/><g fill="#ecf2ff"><path d="m376 452h-105v60h105 105v-60z"/><path d="m477.29 331c-4.572-18.777-13.347-36.482-26.29-50.962v-54.038h-75-75v54.038c-12.944 14.48-21.718 32.184-26.29 50.962h101.29z"/></g><path d="m376 452h105v60h-105z" fill="#d9e5ff"/><path d="m451 280.038v-54.038h-75v105h101.29c-4.572-18.777-13.346-36.482-26.29-50.962z" fill="#d9e5ff"/><path d="m211 196h-75-75l-30 15v241l30 15h75 75l30-15v-241z" fill="#ffd580"/><path d="m241 452v-241l-30-15h-75v271h75z" fill="#faa732"/><g fill="#ecf2ff"><path d="m31 452v60h105 105v-60h-105z"/><path d="m196 151-22.579-31h-37.421-41.684l-18.316 31c-24.814 0-45 20.186-45 45v15h105 105v-15c0-24.814-20.186-45-45-45z"/></g><path d="m136 452h105v60h-105z" fill="#d9e5ff"/><path d="m241 196c0-24.814-20.186-45-45-45l-22.579-31h-37.421v91h105z" fill="#d9e5ff"/><circle cx="136" cy="316" fill="#faa732" r="45"/><path d="m181 316c0-24.814-20.186-45-45-45v90c24.814 0 45-20.186 45-45z" fill="#d9822b"/><path d="m213.432 90c-19.395-6.475-32.432-24.551-32.432-45 0-24.814-20.186-45-45-45s-45 20.186-45 45c0 20.449-13.037 38.525-32.432 45l-12.568 4.204v56.796h90 90v-57.587z" fill="#3d4759"/><path d="m226 93.413-12.568-3.413c-19.395-6.475-32.432-24.551-32.432-45 0-24.814-20.186-45-45-45v151h90z" fill="#252e40"/><path d="m453.432 181c-19.395-6.475-32.432-24.551-32.432-45 0-24.814-20.186-45-45-45s-45 20.186-45 45c0 20.449-13.037 38.525-32.432 45l-12.568 4.204v55.796h90 90v-56.587z" fill="#3d4759"/><path d="m466 184.413-12.568-3.413c-19.395-6.475-32.432-24.551-32.432-45 0-24.814-20.186-45-45-45v150h90z" fill="#252e40"/></g></svg>