<svg id="Capa_1" enable-background="new 0 0 512 512" height="512" viewBox="0 0 512 512" width="512" xmlns="http://www.w3.org/2000/svg"><g><path d="m286 279.038v-54.038h-75-75v54.038c-12.944 14.48-21.718 32.184-26.29 50.962l27.784 30h73.506 63.984l37.306-30c-4.572-18.777-13.346-36.482-26.29-50.962z" fill="#ecf2ff"/><path d="m312.29 330c-4.572-18.777-13.347-36.482-26.29-50.962v-54.038h-75v135h63.984z" fill="#d9e5ff"/><path d="m312.29 330h-101.29-101.29c-2.186 8.978-3.71 18.116-3.71 27.422v154.578h105 105v-154.578c0-9.306-1.523-18.444-3.71-27.422z" fill="#ffd580"/><path d="m316 357.422c0-9.305-1.523-18.444-3.71-27.422h-101.29v182h105z" fill="#faa732"/><path d="m316 30h-105v30h105c33.091 0 60 26.909 60 60s-26.909 60-60 60l-15 15 15 15c49.629 0 90-40.371 90-90s-40.371-90-90-90z" fill="#3d4759"/><path d="m226 70.239v-70.239h-15-15v70.239l-30 42.422v82.339h45 45v-82.339z" fill="#3d4759"/><path d="m256 112.661-30-42.422v-70.239h-15v195h45z" fill="#252e40"/><path d="m211 180h-105v60h105 105v-60z" fill="#5b6373"/><path d="m211 180h105v60h-105z" fill="#3d4759"/></g></svg>