<svg id="Capa_1" enable-background="new 0 0 512 512" height="512" viewBox="0 0 512 512" width="512" xmlns="http://www.w3.org/2000/svg"><g><path d="m331 220.038v-54.038h-75-75v54.038c-12.944 14.48-21.718 32.184-26.29 50.962l27.784 30h73.506 63.984l37.306-30c-4.572-18.777-13.346-36.482-26.29-50.962z" fill="#ecf2ff"/><path d="m357.29 271c-4.572-18.777-13.347-36.482-26.29-50.962v-54.038h-75v135h63.984z" fill="#d9e5ff"/><path d="m256 166h-15v120h15 15v-120z" fill="#d9e5ff"/><path d="m256 166h15v120h-15z" fill="#bfd6ff"/><path d="m301 110.189v-65.189c0-24.814-20.186-45-45-45s-45 20.186-45 45v65.189l-45 15v55.811h90 90v-55.811z" fill="#3d4759"/><path d="m346 125.189-45-15v-65.189c0-24.814-20.186-45-45-45v181h90z" fill="#252e40"/><path d="m357.29 271h-101.29-101.29c-2.186 8.978-3.71 18.116-3.71 27.422v213.578h105 105v-213.578c0-9.306-1.523-18.444-3.71-27.422z" fill="#8ae6b8"/><path d="m361 298.422c0-9.305-1.523-18.444-3.71-27.422h-101.29v241h105z" fill="#5ccca7"/><path d="m256 337.357c-9.203-4.039-19.323-6.357-30-6.357h-15v45c0 30.676 18.56 57.036 45 68.643 9.203 4.039 19.323 6.357 30 6.357h15v-45c0-30.676-18.56-57.036-45-68.643z" fill="#ecf2ff"/><path d="m301 451v-45c0-30.676-18.56-57.036-45-68.643v107.285c9.203 4.039 19.323 6.357 30 6.357h15z" fill="#d9e5ff"/></g></svg>